<svg width="22" height="21" viewBox="0 0 22 21" fill="none" xmlns="http://www.w3.org/2000/svg">
<path d="M10.9133 0C11.2419 0 11.5571 0.130554 11.7895 0.362941C12.0219 0.595329 12.1524 0.910513 12.1524 1.23916V8.67411H19.5874C19.916 8.67411 20.2312 8.80466 20.4636 9.03705C20.696 9.26944 20.8265 9.58462 20.8265 9.91327C20.8265 10.2419 20.696 10.5571 20.4636 10.7895C20.2312 11.0219 19.916 11.1524 19.5874 11.1524H12.1524V18.5874C12.1524 18.916 12.0219 19.2312 11.7895 19.4636C11.5571 19.696 11.2419 19.8265 10.9133 19.8265C10.5846 19.8265 10.2694 19.696 10.0371 19.4636C9.80466 19.2312 9.67411 18.916 9.67411 18.5874V11.1524H2.23916C1.91051 11.1524 1.59533 11.0219 1.36294 10.7895C1.13055 10.5571 1 10.2419 1 9.91327C1 9.58462 1.13055 9.26944 1.36294 9.03705C1.59533 8.80466 1.91051 8.67411 2.23916 8.67411H9.67411V1.23916C9.67411 0.910513 9.80466 0.595329 10.0371 0.362941C10.2694 0.130554 10.5846 0 10.9133 0Z" fill="white"/>
</svg>
