<svg width="25" height="20" viewBox="0 0 25 20" fill="none" xmlns="http://www.w3.org/2000/svg">
<path d="M0 2.5C0 1.83696 0.263392 1.20107 0.732233 0.732233C1.20107 0.263392 1.83696 0 2.5 0H22.5C23.163 0 23.7989 0.263392 24.2678 0.732233C24.7366 1.20107 25 1.83696 25 2.5V17.5C25 18.163 24.7366 18.7989 24.2678 19.2678C23.7989 19.7366 23.163 20 22.5 20H2.5C1.83696 20 1.20107 19.7366 0.732233 19.2678C0.263392 18.7989 0 18.163 0 17.5V2.5ZM4.39875 2.5L12.5 9.58875L20.6013 2.5H4.39875ZM22.5 4.16125L13.3238 12.1912C13.0958 12.391 12.8031 12.5011 12.5 12.5011C12.1969 12.5011 11.9042 12.391 11.6762 12.1912L2.5 4.16125V17.5H22.5V4.16125Z" fill="#F2F2F3"/>
</svg>
