<svg width="15" height="23" viewBox="0 0 15 23" fill="none" xmlns="http://www.w3.org/2000/svg">
<path d="M0 2.5C0 1.83696 0.263392 1.20107 0.732233 0.732233C1.20107 0.263392 1.83696 0 2.5 0H12.5C13.163 0 13.7989 0.263392 14.2678 0.732233C14.7366 1.20107 15 1.83696 15 2.5V20C15 20.663 14.7366 21.2989 14.2678 21.7678C13.7989 22.2366 13.163 22.5 12.5 22.5H2.5C1.83696 22.5 1.20107 22.2366 0.732233 21.7678C0.263392 21.2989 0 20.663 0 20V2.5ZM12.5 2.5H2.5V20H12.5V2.5Z" fill="white"/>
<path d="M8.75 17.5C8.75 17.8315 8.6183 18.1495 8.38388 18.3839C8.14946 18.6183 7.83152 18.75 7.5 18.75C7.16848 18.75 6.85054 18.6183 6.61612 18.3839C6.3817 18.1495 6.25 17.8315 6.25 17.5C6.25 17.1685 6.3817 16.8505 6.61612 16.6161C6.85054 16.3817 7.16848 16.25 7.5 16.25C7.83152 16.25 8.14946 16.3817 8.38388 16.6161C8.6183 16.8505 8.75 17.1685 8.75 17.5Z" fill="white"/>
</svg>
