<svg width="21" height="21" viewBox="0 0 21 21" fill="none" xmlns="http://www.w3.org/2000/svg">
<path d="M14.6924 0.32361C14.8997 0.116402 15.1808 0 15.4739 0C15.7669 0 16.048 0.116402 16.2553 0.32361L20.6764 4.74471C20.8836 4.95198 21 5.23306 21 5.52614C21 5.81922 20.8836 6.1003 20.6764 6.30757L6.30781 20.6762C6.10058 20.8834 5.81949 20.9999 5.52638 21H1.10528C0.812138 21 0.531007 20.8836 0.323728 20.6763C0.116448 20.469 0 20.1879 0 19.8947V15.4736C6.25999e-05 15.1805 0.116552 14.8994 0.323846 14.6922L11.3766 3.63944L14.6924 0.32361ZM12.158 5.98373L2.21055 15.9312V18.7894H5.06879L15.0163 8.84197L12.158 5.98373ZM16.5791 7.27911L18.3321 5.52614L15.4739 2.6679L13.7209 4.42087L16.5791 7.27911Z" fill="white"/>
</svg>
